<svg id="Capa_2" data-name="Capa 2" xmlns="http://www.w3.org/2000/svg" xmlns:xlink="http://www.w3.org/1999/xlink" viewBox="0 0 499.86 139.29"><defs><style>.cls-1{fill:none;}.cls-2{clip-path:url(#clip-path);}.cls-3{fill:#fff;fill-rule:evenodd;}</style><clipPath id="clip-path"><rect class="cls-1" x="694.93" y="-94.35" width="500" height="500"/></clipPath></defs><g class="cls-2"><image width="1600" height="900" transform="translate(248.86 -94.79) scale(1.03)" xlink:href="../../originales/personas/836824.jpg"/></g><path class="cls-3" d="M266,135.87h68.59c10.25,0,18.66-4.2,25.49-12.62a44.9,44.9,0,0,0,10-28.9c0-22.34-28.64-38.11-39.69-38.11H292.77a9.22,9.22,0,0,1-7.1-3.41,12.87,12.87,0,0,1-2.89-8.15,16.15,16.15,0,0,1,2.89-9.46c2.1-2.63,4.73-4.21,7.88-4.21H364V2.89H292.24c-12.88,0-22.87,3.94-30,11.56-6.3,7.1-9.46,16.56-9.46,27.86,0,11,3.16,20.77,9.46,28.64,7.1,8.68,15.51,13.15,25.76,13.15H331.4A7.26,7.26,0,0,1,337.7,87a11.22,11.22,0,0,1,2.63,7.62,14.73,14.73,0,0,1-3.42,9.2,11.34,11.34,0,0,1-8.4,3.68H259.12l-1.05-1.84-26-83.57-1.32-2.63C224.43,6.57,213.92.26,199.47.26a39.2,39.2,0,0,0-21.29,5.79C171.61,10,167.41,15.77,165,23.13L130.09,135.61l31.8.26L194,35.75c.79-3.16,2.63-4.74,5-4.74a4.33,4.33,0,0,1,3.15,1.32,8.07,8.07,0,0,1,1.58,3.42L236,135.87Zm-236.53-92v91.72H0V33.9C0,20.76,3.16,11.56,10,6.05,15.24,2.1,23.13,0,34.16,0A38.37,38.37,0,0,1,57.55,7.62,36.53,36.53,0,0,1,71.22,27.86L90.4,95.4l3.16,9.2a7.38,7.38,0,0,0,2.36,4.2,4.23,4.23,0,0,0,4.21,1c2.63-.26,3.94-1.84,3.94-4.2V3.16h30.22V104.33c0,11.3-2.62,19.72-8.14,25.76-5.26,6-13.14,9.2-23.66,9.2-9.19,0-16.82-1.84-22.86-5a26.26,26.26,0,0,1-14.19-17.09l-22.08-77-1.57-5a10.19,10.19,0,0,0-2.89-4.47,5.49,5.49,0,0,0-4.47-1.05,5.18,5.18,0,0,0-3.68,2.63,9.14,9.14,0,0,0-1.32,4.72v6.84Zm470.43,92L465.69,22.08l-1.31-2.63C458.07,6.57,447.56.26,433.11.26a39.15,39.15,0,0,0-21.29,5.79C405.24,10,401,15.77,398.67,23.13L363.72,135.61l31.8.26L427.58,35.75c.79-3.16,2.63-4.74,5-4.74a4.35,4.35,0,0,1,3.15,1.32,8.19,8.19,0,0,1,1.58,3.42l32.32,100.12Z"/></svg>