<svg id="Capa_2" data-name="Capa 2" xmlns="http://www.w3.org/2000/svg" viewBox="0 0 500 304.1"><defs><style>.cls-1,.cls-2{fill:#fff;}.cls-1{opacity:0.5;}</style></defs><path class="cls-1" d="M243.47,158.49l1.33.24Zm3.62.6c.51.08,1,.15,1.54.21Zm3.82.46,1.5.13Zm2,.16c.43,0,.85.06,1.28.08Zm1.89.12,1.51,0Zm2,.06c1.13,0,2.25,0,3.37,0Zm3.91,0c.52,0,1.05,0,1.57-.06Zm2.06-.08,1.36-.09Zm1.82-.12,1.48-.12Zm4-.4,1.12-.16Zm69-126.93c-.41-.22-.83-.41-1.25-.59Zm-4.1-1.47a14,14,0,0,0-1.58-.24Zm98.21,76.7-.28,0ZM65.12,85.3a15.06,15.06,0,0,1-4-6.09,21.71,21.71,0,0,1-1.54-6.44A22.22,22.22,0,0,1,70.86,53.36a13.06,13.06,0,0,0,4-3,1.84,1.84,0,0,0-.61-.16c-8,0-12-3.09-14-5.71a14.63,14.63,0,0,1-2.87-9.06,20.8,20.8,0,0,1,.71-5.24c2.24-3.7,4.37-2.68,5.67-.79.83,1.19,6.53,5.23,13.55,5.87a12.28,12.28,0,0,1,9.29,5,13,13,0,0,1,2.28,7.46,10.64,10.64,0,0,1-.32,2.68c-.76,3.13-4,5.94-8.63,9.52l-2.6,2.16c-3.8,3.32-5.89,7-5.89,10.16a6.33,6.33,0,0,0,.4,2.26,5.73,5.73,0,0,0,.39.83c1.7,2.88,6.51,4.68,13.47,2.25,3.22-1.12,9.42-5,13.21-8.77,4.45-4.45,10.39-5.51,16.12-6,5-.37,8-1.59,10.17-4,6.36-7.16,12.48-8.17,18.2-8.6,2.2-.16,2.31-.32,2.6-.71a23.46,23.46,0,0,1,9.31-7.72,28.81,28.81,0,0,1,5.91-1.8l2-.5.5-.18c3.19-1,5.66-1.87,12.15-6.26l.27-.17h0l.27-.17h0l.27-.16h0l.27-.15h0l.27-.14h0l.27-.15h0l.27-.13h0l.27-.12h0l.28-.11h0l.28-.11h0l.28-.1h0l.27-.09.3-.1h0l.28-.08h0l.28-.08h0l.27-.08h0l.28-.07h0l.28-.07h0l.27-.06h0l.27-.05h0l.27,0h0l.27,0h0l.28,0h0l.27,0h0l.27,0h0l.27,0h0l.27,0h1.55l.57,0h.29l.26,0h0l.25,0h0l.26,0h0l.25,0h0l.25,0h.05l.25,0h0l.25,0h0l.25.05h0l.24.05h.05c.39.07.77.16,1.14.25l.24.06h0l1.12.31.22.07.05,0c.73.23,1.43.48,2.12.76l.19.08.25.1A79.81,79.81,0,0,1,254.88.09h0c1.22,0,2.45-.08,3.68-.08.81,0,1.62,0,2.44,0l1.21,0h0l1.2.07a79.84,79.84,0,0,1,59,31.76,24.29,24.29,0,0,1,6.26-1.32h0l.21,0h2.18l.22,0h0l.22,0h.05l.22,0h0a14,14,0,0,1,1.58.24l.23.05h0l.23,0h0l.24.06h0l.23.07h0l.23.07h0l.23.07h0l.24.07h0l.25.09.24.09h0l.24.1h0l.25.1h0a13,13,0,0,1,1.25.6h0l.25.13h0l.24.14h0l.24.14h0l.24.16h0l.25.16a48.17,48.17,0,0,0,9.25,5.25c1,.39,1.91.69,2.89,1l.51.17,2,.5a36.49,36.49,0,0,1,3.73,1c3.41,1.11,7.49,3.27,11.45,8.55.29.39.42.55,2.62.72,5.72.42,11.83,1.43,18.22,8.59,2.13,2.42,5.17,3.64,10.14,4,5.75.45,11.68,1.51,16.12,6,3.79,3.75,10,7.65,13.21,8.77,7,2.44,11.79.63,13.45-2.25a5.71,5.71,0,0,0,.73-2,6,6,0,0,0,.1-1.11c0-3.14-2.1-6.85-5.89-10.17l-.47-.4L434.82,60c-4.56-3.58-7.85-6.39-8.64-9.51a10.81,10.81,0,0,1-.3-2.69,13.27,13.27,0,0,1,2.26-7.46,12.4,12.4,0,0,1,9.3-5c7.06-.64,12.72-4.68,13.55-5.87,1.33-1.89,3.44-2.91,5.67.8a20.66,20.66,0,0,1,.71,5.23,14.59,14.59,0,0,1-2.87,9.06c-2,2.62-6.08,5.71-14.05,5.71a1.85,1.85,0,0,0-.6.16,12.75,12.75,0,0,0,4,3,22.25,22.25,0,0,1,11.33,19.41,20.86,20.86,0,0,1-1.56,6.44,15.28,15.28,0,0,1-3.37,5.47c-.2.21-.41.42-.64.62-3.29,3.06-8.77,5.46-17.91,4.91-1-.06-1.92-.14-2.88-.26-.24,4.61-1.5,10.09-3.28,12.86a3.51,3.51,0,0,0-.65,1.73c0,.12,0,.19,0,.24s4.06,2.38,4.06,2.38l.64.33s.38.17.43.21,1.38-.08,1.38-.08l.26,0h0c2.5-.23,6.31-1.46,7.94,3.07.42,1.21.68,2.25.92,3.18.5,1.9.92,3.3,2.58,4.58,0,0,.82-.7,1.76-1.53.71-.63,1.42-1.29,2.11-1.95,1.16-1.19,3.3-.58,4.84,0a40,40,0,0,1,4.86,2.71,5.11,5.11,0,0,1,2.52,2.92,5.25,5.25,0,0,0,2.83,2.7,8.18,8.18,0,0,1,3.42,6.81,4.79,4.79,0,0,0,.2,1.47,7.47,7.47,0,0,0,.44,1c2,4,.38,5.95-.75,6.79a9.47,9.47,0,0,1-6.77,1.21l0,.65-3.7-.49a15,15,0,0,0-4.45.42l-.27.07a7.68,7.68,0,0,1-8-3.51l-.21-.36a12.15,12.15,0,0,0-3.27-3.79,13,13,0,0,1-4.85.49,11.5,11.5,0,0,1-6.31-2.76,14.5,14.5,0,0,1-1.11-1,12.36,12.36,0,0,0-10.29-3.53l-1.62.28c-3.33.61-7.5,1.38-11.35-1a29.38,29.38,0,0,0-3.7-1.76c-3.49-1.52-7.1-3.09-7.6-6.4a9.5,9.5,0,0,0-1.24-2.53,22.25,22.25,0,0,1-1.36-2.47,7.19,7.19,0,0,1-.66-2.7,12.22,12.22,0,0,1-3.51.36,10.6,10.6,0,0,1-1.25-.13l-1.51-.23c-2.56-.44-7.92-1.32-9.62-.69-3.4,1.22-14.08,1.81-17,1.14l-2.1-.45a24.52,24.52,0,0,1-3.21,2.79c2.15.12,4-.15,5.33.19l2.69.71a15.23,15.23,0,0,1,4.16-.12l3.15.24,3.6.34c1.73.35,3.57,1.1,3.25,4.5a6.27,6.27,0,0,1-1.58,3.39,33.58,33.58,0,0,0-2.78,4.12l-.14.27c-.73,1.56-1.81,3-5,3a9.63,9.63,0,0,0-1.2,0,7.63,7.63,0,0,1-.35.73c-.71,1.62-1.74,3.87-3.71,5.17l-.52.38c-1.58,1.12-4.2,3-8.23,1.52l-1.38-.5a101.06,101.06,0,0,1-11.48-4.62l-.38-.2c-2.49-1.37-3-1.64-3.95-1.51l-.5.07c-1.91.27-5.51.76-8-3.37l-.23-.36a80,80,0,0,1-50.05,31.6l-.09,0-2.1.35-.27,0-1,.14-1.13.16-.68.08-1.09.12-.75.08c-.48.05-1,.09-1.47.12l-.46,0-1.35.09-.5,0-1.57.06h-.53c-1.13,0-2.25,0-3.37,0h-.51l-1.51-.06-.61,0-1.27-.07-.54,0-1.51-.13-.74-.07-1-.11-.54-.06-1.55-.22-.62-.09-1.1-.17-.57-.1q-.66-.1-1.32-.24l-1-.19-.49-.1c-.65-.14-1.31-.28-2-.44l-.17,0-1-.24-.53-.14-1.81-.49-.22-.07a80,80,0,0,1-43.66-31.52l-1.36,2.08c-2.47,4.12-6.07,3.64-8,3.37l-.5-.08c-.91-.12-1.48.15-4,1.51l-.39.21A101.21,101.21,0,0,1,167,137l-1.39.5c-4,1.46-6.65-.4-8.2-1.52l-.54-.38c-2-1.3-3-3.55-3.71-5.17,0,0-.24-.48-.35-.73a9.71,9.71,0,0,0-1.21,0c-3.13,0-4.24-1.43-5-3l-.13-.27a31.84,31.84,0,0,0-2.8-4.12,6.26,6.26,0,0,1-1.58-3.4c-.32-3.39,1.54-4.14,3.26-4.49L149,114l3.16-.24a15,15,0,0,1,4.13.12l2.7-.71c1.28-.34,3.18-.07,5.31-.19a30.31,30.31,0,0,1-3.2-2.79c-1,.21-2.1.45-2.1.45-2.93.67-13.6.08-17-1.15-1.71-.62-7.06.26-9.63.7l-1.54.23a11.55,11.55,0,0,1-4.72-.23,11.26,11.26,0,0,1-2,5.17,9.66,9.66,0,0,0-1.26,2.53c-.46,3.31-4.12,4.88-7.6,6.4a29,29,0,0,0-3.68,1.76c-3.82,2.34-8,1.58-11.36,1l-1.62-.28a12.38,12.38,0,0,0-10.29,3.53c-5,5-10,3.9-12.26,3.28a12.15,12.15,0,0,0-3.28,3.79,7.68,7.68,0,0,1-8.23,3.87l-.28-.07a15,15,0,0,0-4.41-.43l-3.73.5,0-.65a9.52,9.52,0,0,1-6.79-1.21c-1.13-.84-2.71-2.83-.71-6.79a5.18,5.18,0,0,0,.62-2.49,8.18,8.18,0,0,1,3.4-6.81c1.47-.77,2.44-1.54,2.83-2.7A5.08,5.08,0,0,1,58,117.65a39.84,39.84,0,0,1,4.85-2.71c1.55-.59,3.69-1.19,4.85,0s3.87,3.48,3.87,3.48c2.47-1.91,2.24-4.11,3.52-7.76,1.6-4.53,5.43-3.31,7.92-3.07l.28,0s1.35.06,1.39.08l.44-.22.62-.32,4.06-2.38a.72.72,0,0,0,0-.24,3.48,3.48,0,0,0-.64-1.74c-1.79-2.76-3-8.24-3.28-12.85-.65.07-1.27.14-1.88.19-9.73.78-15.51-1.68-18.89-4.85Z"/><path class="cls-2" d="M89.07,86.59a29.71,29.71,0,0,0,2.72,14.76s2.62,3.71-.1,6.1l-5.41,3.14s-.73.54-3.15.36c0,0-3.33-.83-4.45.65a44.76,44.76,0,0,1-2.18,5.17S74,122.44,70,124.25c0,0-3.25.75-4.24,3.57a4.06,4.06,0,0,1-3.14,2.06s-1.57.5-2.61,4a18.78,18.78,0,0,0-.53,4,11.44,11.44,0,0,1,4.41.27s4.28,1.44,6.19-2.08c0,0,3.7-6.34,6.44-5.38,0,0,5.51,1.84,9.4-2.18,0,0,5.34-5.84,12.89-4.64,0,0,8.5,1.73,11.15-.24,0,0,5.36-2.8,7.38-3.49A4,4,0,0,0,120,116.7a26.32,26.32,0,0,1,2.59-5.06l-4.06,0s-3.67,6.18-9.91,8c0,0-3.41,1.36-10.26.25,0,0-9.84-2.22-18.47,7.1,0,0-1.18,1.71-2.87,1A23.47,23.47,0,0,1,92.27,118a20,20,0,0,1,6.29-.26,23.23,23.23,0,0,0,20.66-13.49s-.71-11.84,2.42-14.65c0,0,1.21-.37,1,1.92,0,0-2.14,12.41,1.89,14.82,0,0,2.34,1.84,6.67,1.16,0,0,6.57-1.57,11.91-.66,0,0,8.21,1.95,15.26,1a10.46,10.46,0,0,1-1.47-6.16s1-2.4,2.17-.86c0,0,2.71,9,10.13,11.66,0,0,6.62,2.41,6.51,10.81,0,0-1,1.16-9.8,4.28,0,0-3.28,1-4.33-1.42,0,0-4.24-9.06-7.93-8.78l-6.92.56s-2.36.6-.62,2.5a48.88,48.88,0,0,1,3.34,5s.28,1.61,2.51,1.26c0,0,3.09-1.53,4.83,4.22a9,9,0,0,0,4.29,3.79,6.6,6.6,0,0,0,4.9-.48s11.43-4.2,13.42-5.69c0,0,2.47-1.38,4.43-.72,0,0,3.43.82,4.85-1.89l3.54-5.48a5.94,5.94,0,0,0,.67-3,4.37,4.37,0,0,0-1.1-3.38,7.29,7.29,0,0,1-1.55-2.44l-2.52-5.94a8.25,8.25,0,0,0-2.15-2.24l-3.37.25s2.32,5.93,4,8.35c0,0,2.3,3.51,2.18,5.75a4.68,4.68,0,0,1-.77,2.22s-.78,1.25-1.09,1.85c0,0-1,2.22-1.85,2.71a10.27,10.27,0,0,1-1.79.88s-.62.18-.16-.94c0,0,1.89-4,1.77-6.1a4.08,4.08,0,0,0-1.2-3.52s-3.68-5.8-4.2-7.53a11.75,11.75,0,0,0-1.77-2.72,1.5,1.5,0,0,1,.79-2.47s5.16-1.17,6.09-1.8c0,0,2.48-.75,4.09-5.92,0,0,2.22-6,2.19-9.75,0,0,4.35,8.39-2.59,16.92,0,0,5.49,1.62,7.76,0,0,0,6.84-1,8.16-1.37,0,0,1.72-.41.74.81,0,0-2.06,2.93-2.24,4.86a3.61,3.61,0,0,1-1.38,2.42s-3.89,2.73-4.23,5.33c0,0-.84,2.51.88,1.91,0,0,2.33-1.08,3.15,0,0,0,.24.11-.65,1.12a7.82,7.82,0,0,0-2.51,4.76s.43,3.15,1.25,4.16a2.63,2.63,0,0,0,2.72,1,1.38,1.38,0,0,1,1.23-.11,11.4,11.4,0,0,0,3-.75s3.26-.89,4.35-1.28c0,0,4.14-1.48,6.18-1.38a11.15,11.15,0,0,1,3,.2s5.18.59,8.63-3.23c0,0,2.63-2.09,3.52-.06,0,0,6.31,8.46,16.51,6.23,0,0-8.12-3.34-10.22-7.89,0,0-.28-3.86-4.54-9.22,0,0-1.3-1.78,0-2.25,0,0,.72-.54,2.31,1,0,0,4,3.88,5.5,7.43,0,0,5,7.58,12.25,5,0,0-5.68-2.19-8.35-6.27a20.75,20.75,0,0,0-7.19-9.65s-.22-6.21-2.8-9.7c0,0-1.32-5.84-1.67-7.2A47.74,47.74,0,0,1,231.8,81,18.54,18.54,0,0,0,228,69.11a36.43,36.43,0,0,0-7.4-9.46s-3.42-4.23-6-6.82a61.75,61.75,0,0,0-10.65-9,47.31,47.31,0,0,1-5.72-5S185.33,29.53,176,37c0,0-6.43,4.37-11.79,5.73,0,0-11,1.28-15.73,8.93,0,0-.4,1.42-4.85,2,0,0-9.76-1.18-17,8.42,0,0-3.34,3.26-9.95,4,0,0-10.78-1.1-17.8,7.16,0,0-17.71,15.45-28.27,5.43,0,0-5.48-5.18.78-14.56a66.39,66.39,0,0,1,10.74-9.79s5.49-3.87,3-9.88c0,0-1.33-5.82-9.56-6,0,0-10.33-2-14.5-7.21,0,0-4.67,16.42,13.64,16.15,0,0,4.77.71,3.1,4.49a14.13,14.13,0,0,1-5.48,4.42s-5.52,2.41-8,10.45c0,0-5.58,14.08,8,19.51,5.23,1.81,11.28,1.28,16.67.34ZM62.88,119.75a3.34,3.34,0,0,1,2.77-.74c2.17.47.86,2.35.86,2.35a26.88,26.88,0,0,1-3.74,4.4,3.33,3.33,0,0,1-4.56-.36c-1.89-1.86.57-2.76.57-2.76A23.23,23.23,0,0,0,62.88,119.75Zm-5.46,8.8a1.49,1.49,0,0,1,.37,1.74s-2,5.53-1.93,7.38c0,0-4.47.8-5.09-1.4a3.53,3.53,0,0,1,.61-2.09,7.63,7.63,0,0,0,1-3.26s-.07-5.3,3.36-3.9a6.29,6.29,0,0,1,1.72,1.53ZM215,117.33c-.78,0-1-.31-.89-1.18a5.43,5.43,0,0,1,2.46-3.44c3.62-2.17,4.06,0,4.06,0,.67,3.87-2.39,4.35-2.39,4.35A21.78,21.78,0,0,1,215,117.33Zm10.93-17.27c.07-1.82.22-5.85-1.62-7.29-.68-.54-3.37-3.49-3.37-3.49-.41-.71-.73-.76-.73-.76-.55,0-1.27,1.24-1.27,1.24C217,93.46,215.11,93,215.11,93a3.23,3.23,0,0,1,.44-1.43q1.38-2.7,2.75-5.41c.28-.64.54-1.49.54-1.49,1.85-2.87,3.59-.69,3.59-.69a71.61,71.61,0,0,0,4.93,6.47,4.33,4.33,0,0,1,1,2.27c1,6.78-2.43,7.33-2.43,7.33ZM187.72,59.14a3,3,0,0,1,.24-3c1.29-2,2.48.18,2.48.18,4.44,6.18,1.16,15.43,1.16,15.43-.45-8.52-3.88-12.56-3.88-12.56Zm238,27.45A29.71,29.71,0,0,1,423,101.35s-2.62,3.71.1,6.1l5.41,3.14s.73.54,3.15.36c0,0,3.33-.83,4.45.65a44.76,44.76,0,0,0,2.18,5.17s2.47,5.67,6.55,7.48c0,0,3.25.75,4.23,3.57a4.08,4.08,0,0,0,3.15,2.06s1.57.5,2.61,4a18.78,18.78,0,0,1,.53,4,11.44,11.44,0,0,0-4.41.27s-4.28,1.44-6.19-2.08c0,0-3.7-6.34-6.44-5.38,0,0-5.51,1.84-9.4-2.18,0,0-5.34-5.84-12.89-4.64,0,0-8.5,1.73-11.15-.24,0,0-5.36-2.8-7.37-3.49a4,4,0,0,1-2.72-3.42,26.32,26.32,0,0,0-2.59-5.06l4.06,0s3.67,6.18,9.91,8c0,0,3.41,1.36,10.26.25,0,0,9.84-2.22,18.47,7.1,0,0,1.18,1.71,2.87,1A23.47,23.47,0,0,0,422.51,118a20.09,20.09,0,0,0-6.3-.26,23.24,23.24,0,0,1-20.66-13.49s.71-11.84-2.41-14.65c0,0-1.2-.37-1,1.92,0,0,2.15,12.41-1.88,14.82,0,0-2.34,1.84-6.68,1.16,0,0-6.56-1.57-11.9-.66,0,0-8.21,1.95-15.26,1a10.46,10.46,0,0,0,1.47-6.16s-1-2.4-2.17-.86c0,0-2.71,9-10.13,11.66,0,0-6.63,2.41-6.52,10.81,0,0,1,1.16,9.8,4.28,0,0,3.29,1,4.35-1.42,0,0,4.23-9.06,7.92-8.78l6.92.56s2.36.6.62,2.5a48.88,48.88,0,0,0-3.34,5s-.28,1.61-2.51,1.26c0,0-3.09-1.53-4.83,4.22a9,9,0,0,1-4.29,3.79,6.6,6.6,0,0,1-4.9-.48s-11.43-4.2-13.42-5.69c0,0-2.47-1.38-4.43-.72,0,0-3.43.82-4.84-1.89l-3.55-5.48a5.94,5.94,0,0,1-.67-3A4.37,4.37,0,0,1,323,114a7.13,7.13,0,0,0,1.55-2.44l2.53-5.94a8.14,8.14,0,0,1,2.14-2.24l3.38.25s-2.33,5.93-4,8.35c0,0-2.3,3.51-2.18,5.75a4.68,4.68,0,0,0,.77,2.22s.78,1.25,1.09,1.85c0,0,1,2.22,1.85,2.71a10.27,10.27,0,0,0,1.79.88s.62.18.15-.94c0,0-1.88-4-1.76-6.1a4.08,4.08,0,0,1,1.2-3.52s3.68-5.8,4.21-7.53a11.32,11.32,0,0,1,1.76-2.72,1.5,1.5,0,0,0-.79-2.47s-5.16-1.17-6.08-1.8c0,0-2.48-.75-4.1-5.92,0,0-2.22-6-2.19-9.75,0,0-4.35,8.39,2.59,16.92,0,0-5.49,1.62-7.76,0,0,0-6.84-1-8.16-1.37,0,0-1.72-.41-.74.81,0,0,2.06,2.93,2.24,4.86a3.59,3.59,0,0,0,1.39,2.42s3.89,2.73,4.22,5.33c0,0,.84,2.51-.88,1.91,0,0-2.33-1.08-3.15,0,0,0-.24.11.66,1.12a7.83,7.83,0,0,1,2.5,4.76s-.43,3.15-1.25,4.16a2.63,2.63,0,0,1-2.72,1,1.39,1.39,0,0,0-1.24-.11,11.3,11.3,0,0,1-3-.75s-3.26-.89-4.35-1.28c0,0-4.14-1.48-6.19-1.38a11.07,11.07,0,0,0-3,.2s-5.19.59-8.64-3.23c0,0-2.63-2.09-3.52-.06,0,0-6.3,8.46-16.51,6.23,0,0,8.12-3.34,10.23-7.89,0,0,.28-3.86,4.53-9.22,0,0,1.3-1.78.05-2.25,0,0-.73-.54-2.31,1,0,0-4,3.88-5.5,7.43,0,0-5,7.58-12.25,5,0,0,5.67-2.19,8.34-6.27a20.73,20.73,0,0,1,7.2-9.65s.21-6.21,2.8-9.7c0,0,1.32-5.84,1.67-7.2A49.31,49.31,0,0,0,283,81a18.47,18.47,0,0,1,3.85-11.9,36.18,36.18,0,0,1,7.4-9.46s3.42-4.23,6-6.82a61.75,61.75,0,0,1,10.65-9,47,47,0,0,0,5.73-5s12.87-9.27,22.18-1.84c0,0,6.42,4.37,11.79,5.73,0,0,11,1.28,15.73,8.93,0,0,.4,1.42,4.84,2,0,0,9.76-1.18,16.95,8.42,0,0,3.34,3.26,10,4,0,0,10.77-1.1,17.79,7.16,0,0,17.71,15.45,28.28,5.43,0,0,5.47-5.18-.79-14.56a66,66,0,0,0-10.73-9.79s-5.5-3.87-3-9.88c0,0,1.33-5.82,9.56-6,0,0,10.33-2,14.5-7.21,0,0,4.67,16.42-13.63,16.15,0,0-4.78.71-3.11,4.49a14.13,14.13,0,0,0,5.48,4.42s5.52,2.41,8,10.45c0,0,5.57,14.08-8,19.51-5.22,1.81-11.27,1.28-16.66.34Zm26.19,33.16a3.36,3.36,0,0,0-2.77-.74c-2.17.47-.86,2.35-.86,2.35a26.88,26.88,0,0,0,3.74,4.4,3.32,3.32,0,0,0,4.56-.36c1.88-1.86-.57-2.76-.57-2.76A22.84,22.84,0,0,1,451.9,119.75Zm5.46,8.8a1.49,1.49,0,0,0-.37,1.74s2,5.53,1.93,7.38c0,0,4.47.8,5.09-1.4a3.53,3.53,0,0,0-.61-2.09,7.63,7.63,0,0,1-1-3.26s.07-5.3-3.36-3.9a6.15,6.15,0,0,0-1.72,1.53ZM299.77,117.33c.79,0,1-.31.9-1.18a5.43,5.43,0,0,0-2.46-3.44c-3.62-2.17-4.07,0-4.07,0-.66,3.87,2.4,4.35,2.4,4.35a21.67,21.67,0,0,0,3.23.27Zm-10.92-17.27c-.07-1.82-.23-5.85,1.62-7.29.68-.54,3.37-3.49,3.37-3.49.41-.71.73-.76.73-.76.55,0,1.27,1.24,1.27,1.24,1.91,3.7,3.83,3.25,3.83,3.25a3.23,3.23,0,0,0-.44-1.43c-.93-1.8-1.84-3.6-2.75-5.41-.2-.49-.38-1-.54-1.49-1.85-2.87-3.59-.69-3.59-.69a71.89,71.89,0,0,1-4.92,6.47,4.36,4.36,0,0,0-1,2.27c-1,6.78,2.44,7.33,2.44,7.33Zm38.2-40.92a3,3,0,0,0-.23-3c-1.29-2-2.48.18-2.48.18-4.44,6.18-1.16,15.43-1.16,15.43.45-8.52,3.87-12.56,3.87-12.56Z"/><path class="cls-2" d="M0,187.19V300.54H22.87V208.82H33.65s16.82-.75,16.82,14.56-14.93,14.93-14.93,14.93H30.05V264.4l22.88,36.14H79.77L47.82,254.2s26.28-2.27,26.28-30.82-19.85-36.19-46.31-36.19Zm334.41,53a29.75,29.75,0,0,0,10-22.56c0-14.77-10.73-28.09-33.57-28.09H272.59v111h47.12s33.78-.38,33.78-30.9C353.49,251.92,346.61,245.13,334.41,240.21Zm-18.44,41h-20.5V208.91h11s14.89-1.11,14.89,11.88-11.85,11.85-11.85,11.85h-6.82v19.48H316c3.49,0,14.61,1.7,14.61,14.5S316,281.23,316,281.23ZM478.64,185H500V300.54H478.64V185Zm-36.77,0h21.65V300.54H441.87V185Zm-81.94,47.87h21.92v38.75s.76,13.05,13,13.05S407,271.58,407,271.58V233h22.11v39.89S432,304.1,395.46,304.1s-35.53-27.41-35.53-32.32V232.83ZM214.56,185v52.41s-10.59-8.12-22.69-8.12-32.51,8.5-32.51,35.34,17.39,37.06,32.32,37.06a32,32,0,0,0,23.26-9.83v8.72h21.54V185Zm-16.64,97.78c-1.14,0-15.31.19-15.31-17.2s15.5-18,15.5-18,17.39.56,17.39,17.58S199.05,282.74,197.92,282.74Zm-81.66-53.5c36.67,0,35.16,35.73,35.16,35.73v5.67H101.7c0,8.12,6.8,15.12,16.07,15.12s14-8.88,14-8.88l17.58,8.69c-8.13,12.29-19.1,17.2-31.38,17.2C79.77,302.77,79,271,79,267.05s.57-37.81,37.24-37.81Zm-14.18,28.35H129.3s-1.13-12.85-13.42-12.85S102.08,257.59,102.08,257.59Z"/></svg>