<svg id="Capa_2" data-name="Capa 2" xmlns="http://www.w3.org/2000/svg" viewBox="0 0 500 65.15"><defs><style>.cls-1{fill:#fff;}</style></defs><g id="TESLA"><path class="cls-1" d="M427.32,25.84V65.15h12.56V38.94h45.94V65.15h12.56V25.84H427.32M438.44,13.1H486.9C493.72,11.84,498.56,5.74,500,0H425.34c1.44,5.74,6.46,11.67,13.1,13.1M389.09,65.15A18.59,18.59,0,0,0,400.22,52.4H343.68V.18H330.94v65h58.15M236.72,12.92h44.87C288.41,11,294,5.74,295.41.18H224.34V38.59h58.14V52.05H236.9a25.68,25.68,0,0,0-16.33,13.1h74.48V25.84H236.9l-.18-12.92m-110.55.18h48.45c6.82-1.26,11.85-7.36,13.1-13.1H112.89c1.43,5.74,6.46,11.67,13.28,13.1m0,25.67h48.45c6.82-1.26,11.85-7.36,13.1-13.11H112.89c1.43,5.75,6.46,11.67,13.28,13.11m0,26.38h48.45c6.82-1.26,11.85-7.36,13.1-13.1H112.89c1.43,5.74,6.46,11.84,13.28,13.1"/><path class="cls-1" d="M0,.18C1.44,5.92,6.46,11.67,13.1,13.1H33.56l1.08.36V65H47.38V13.46l1.08-.36H68.92A18.33,18.33,0,0,0,82,.18V0L0,.18"/></g></svg>