<svg id="Capa_2" data-name="Capa 2" xmlns="http://www.w3.org/2000/svg" viewBox="0 0 499.86 130.12"><defs><style>.cls-1{fill:#fff;}</style></defs><path class="cls-1" d="M20.58,37.22c1.52,2.34,2.18,4.42,3,8.82A29.82,29.82,0,0,1,44.8,37.22c7.2,0,13.11,2.34,17.68,7.11a27.4,27.4,0,0,1,3.44,4.25c8-8.15,15.08-11.36,24.62-11.36,6.8,0,13.24,2,17.17,5.42,4.91,4.24,6.47,9.35,6.47,21.23v61.81H92.1V68.29c0-10.4-1.23-12.41-7.15-12.41-4.25,0-10.21,2.9-15.11,7.31v62.49H48.29V69.11c0-10.85-1.57-13.39-7.89-13.39-4.2,0-10,2.17-14.92,6.61v63.35H3.25V65c0-12.55-.86-18-3.25-22.24Zm134,25.45c-1.56,4.6-2.39,10.71-2.39,19.38,0,10,1,17.5,2.88,21.9,2,4.76,7.17,7.13,11.55,7.13,9.85,0,14.07-8.82,14.07-29.37,0-11.72-1.53-19.38-4.57-23.3a12.15,12.15,0,0,0-9.83-4.57c-5.44,0-9.87,3.38-11.71,8.83Zm40.92-12.55c6.94,8.14,10,17.65,10,31.74,0,14.94-3.42,25.15-10.92,33.63-6.59,7.46-15.27,12.06-28.66,12.06-23.64,0-39-17.66-39-45S142.47,37,165.94,37c12.4,0,22.07,4.26,29.54,13.09Zm83.24-11.39V54.36l-38.41,55.53h39.91l-5.45,15.79h-64V111.59L251.66,54.7H214.19v-16Zm35.81-2v89H291.78V40.26l22.75-3.57ZM317.2,14.8a14,14,0,1,1-28,0A14.23,14.23,0,0,1,303.5.69,13.86,13.86,0,0,1,317.2,14.8ZM356,22.62V90.36c0,15,.18,17,1.55,19.36a5.18,5.18,0,0,0,4.6,2.37,8.34,8.34,0,0,0,2.53-.31l3.89,13.57A38,38,0,0,1,355,127.72c-9.7,0-17.51-4.57-20.21-11.86-1.71-4.42-2.08-7.15-2.08-19.54V31.42a225.81,225.81,0,0,0-1.14-26.16L354.79,0C355.61,4.75,356,10.36,356,22.62Zm47.19,0V90.36c0,15,.2,17,1.59,19.36a5,5,0,0,0,4.54,2.37,8.38,8.38,0,0,0,2.58-.31l3.88,13.57a38,38,0,0,1-13.58,2.37c-9.69,0-17.51-4.57-20.23-11.86-1.73-4.42-2-7.15-2-19.54V31.42A219.47,219.47,0,0,0,378.7,5.26L401.94,0c.93,4.75,1.21,10.36,1.21,22.62Zm65.2,65c-15.73,0-21.25,2.86-21.25,13.27,0,6.76,4.3,11.35,10.07,11.35,4.23,0,8.51-2.21,11.88-5.94l.37-18.68ZM438.86,42a58.26,58.26,0,0,1,23.75-5.09c14.63,0,24.63,5.42,28.06,15.11,1.13,3.56,1.65,6.27,1.54,15.62l-.55,29.19v1.55c0,9.33,1.55,12.91,8.2,17.82l-12.09,14c-5.31-2.22-10-6.14-12.25-10.54a39.57,39.57,0,0,1-5.29,4.57c-4.21,3.06-10.37,4.77-17.49,4.77-19.37,0-29.89-9.87-29.89-27.16,0-20.41,14.13-29.93,41.79-29.93a48.23,48.23,0,0,1,5.12.19V68.47c0-9.69-1.89-12.92-10.26-12.92-7.21,0-15.77,3.54-25.09,9.84l-9.69-16.3A83,83,0,0,1,438.86,42Z"/></svg>