<svg id="Capa_2" data-name="Capa 2" xmlns="http://www.w3.org/2000/svg" viewBox="0 0 499.86 98.93"><defs><style>.cls-1{fill:#fff;}</style></defs><path class="cls-1" d="M257.34,48.05c-4.13,0-7.1,1.35-10.12,2.73V82a64.68,64.68,0,0,0,7.29.28c9.9,0,11.26-4.54,11.26-10.87V56.49c0-4.68-1.55-8.44-8.43-8.44Zm-65.79-1.7c-6.88,0-8.45,3.77-8.45,8.44v2.63H200V54.79C200,50.12,198.41,46.35,191.55,46.35ZM64.09,78.82c0,3.7,1.75,5.62,5.6,5.62,4.13,0,6.57-1.35,9.59-2.73v-7.4h-9c-4.28,0-6.16.79-6.16,4.51ZM321.34,48.05c-6.89,0-9.27,3.76-9.27,8.44V73.56c0,4.69,2.38,8.46,9.27,8.46s9.27-3.77,9.27-8.46V56.49C330.61,51.81,328.2,48.05,321.34,48.05ZM30.35,98H10.11V49H0V32.1H10.11V22C10.11,8.19,15.82,0,32,0H45.55V16.88H37.11c-6.32,0-6.73,2.36-6.73,6.77l0,8.45H45.64L43.86,49H30.35V98Zm69.17.13H82.65l-.73-4.26a38.69,38.69,0,0,1-19.11,5c-12.37,0-19-8.26-19-19.69,0-13.48,7.68-18.29,21.43-18.29h14V57.88c0-6.88-.79-8.9-11.38-8.9H50.6L52.29,32.1H71.2c23.23,0,28.32,7.33,28.32,25.92V98.09Zm57.36-47.87c-10.5-1.8-13.51-2.2-18.56-2.2-9.07,0-11.82,2-11.82,9.71V72.3c0,7.7,2.75,9.71,11.82,9.71,5.05,0,8.06-.4,18.56-2.21V96.27a89.46,89.46,0,0,1-20.25,2.6c-21.73,0-30.36-11.43-30.36-27.93V59.11c0-16.52,8.63-28,30.36-28,5.07,0,11.06.55,20.25,2.62V50.22Zm63.33,20.72H183.1V72.3c0,7.7,2.74,9.71,11.81,9.71,8.16,0,13.13-.4,23.61-2.21V96.27a106.43,106.43,0,0,1-25.28,2.6c-21.73,0-30.38-11.43-30.38-27.93V57.42c0-14.45,6.42-26.28,28.68-26.28s28.67,11.7,28.67,26.28Zm65.79.31c0,16-4.56,27.59-32.18,27.59-10,0-15.83-.88-26.84-2.57V5.07L247.22,1.7V33.6a45.76,45.76,0,0,1,15.18-2.45c20.23,0,23.6,9.07,23.6,23.65V71.25Zm64.86.35c0,13.76-5.68,27.11-29.46,27.11S291.83,85.36,291.83,71.6V58.31c0-13.77,5.79-27.12,29.57-27.12s29.46,13.35,29.46,27.12V71.6Zm64.81,0c0,13.76-5.69,27.11-29.46,27.11S356.64,85.36,356.64,71.6V58.31c0-13.77,5.79-27.12,29.57-27.12s29.46,13.35,29.46,27.12V71.6ZM482.18,98H460.25L441.71,67V98H421.47V5.07l20.24-3.38V61.5l18.54-29.4h21.93L461.94,64.18Zm-96-49.91c-6.87,0-9.25,3.76-9.25,8.44V73.56c0,4.69,2.38,8.46,9.25,8.46s9.3-3.77,9.3-8.46V56.49c0-4.68-2.43-8.44-9.3-8.44Zm107.6,38.36a6.26,6.26,0,1,1-6.21,6.25,6.16,6.16,0,0,1,6.21-6.25Zm0,1a5.3,5.3,0,0,0,0,10.58,5.08,5.08,0,0,0,5-5.27,5.14,5.14,0,0,0-5-5.31Zm-1.16,8.92h-1.11v-7a12.82,12.82,0,0,1,2-.16,3.62,3.62,0,0,1,2.16.53,1.66,1.66,0,0,1,.63,1.44,1.74,1.74,0,0,1-1.35,1.7v0c.61.11,1,.66,1.16,1.69a6.33,6.33,0,0,0,.44,1.72h-1.16a5.32,5.32,0,0,1-.47-1.78,1.3,1.3,0,0,0-1.5-1.22h-.77v3Zm0-3.86h.8c.91,0,1.69-.34,1.69-1.2,0-.61-.44-1.22-1.69-1.22a6.84,6.84,0,0,0-.8,0v2.37Z"/></svg>