<svg id="Capa_2" data-name="Capa 2" xmlns="http://www.w3.org/2000/svg" viewBox="0 0 500 151.56"><defs><style>.cls-1{fill:#1bc54b;}</style></defs><path class="cls-1" d="M90.75,28.61a7.66,7.66,0,0,1-2.61,3.18,6.62,6.62,0,0,1-3.54.92A8.94,8.94,0,0,1,80,31.12q-2.56-1.59-6-3.53a49.67,49.67,0,0,0-8.16-3.54,34.22,34.22,0,0,0-11-1.59,32.52,32.52,0,0,0-10,1.38,21.13,21.13,0,0,0-7.18,3.85,15.33,15.33,0,0,0-4.35,5.89,19.33,19.33,0,0,0-1.44,7.54,13.11,13.11,0,0,0,2.92,8.72,24.65,24.65,0,0,0,7.74,5.95,72.51,72.51,0,0,0,11,4.41Q59.58,62.14,66,64.35a120.72,120.72,0,0,1,12.56,5.13,43.37,43.37,0,0,1,11,7.38,33.33,33.33,0,0,1,7.75,10.92,38.08,38.08,0,0,1,2.92,15.69,51.16,51.16,0,0,1-3.44,18.82,43.44,43.44,0,0,1-10,15.28,47.24,47.24,0,0,1-16.15,10.25,59.37,59.37,0,0,1-21.84,3.74,70.66,70.66,0,0,1-14-1.38,72.94,72.94,0,0,1-13.17-4,69,69,0,0,1-11.8-6.15,57.71,57.71,0,0,1-9.79-8l8-13.23a10.31,10.31,0,0,1,2.72-2.41,6.6,6.6,0,0,1,3.53-1,9.79,9.79,0,0,1,5.54,2.1q3,2.1,7,4.67a53.9,53.9,0,0,0,9.53,4.66A36.92,36.92,0,0,0,49.53,129q11.79,0,18.25-5.59t6.46-16a14.89,14.89,0,0,0-2.92-9.54,23.58,23.58,0,0,0-7.74-6.2,57.27,57.27,0,0,0-11-4.26q-6.16-1.74-12.51-3.79a107.15,107.15,0,0,1-12.51-4.93,40.58,40.58,0,0,1-11-7.48A34.12,34.12,0,0,1,8.87,59.63Q5.95,52.72,6,42.56A40.79,40.79,0,0,1,18.61,13.13,46.46,46.46,0,0,1,33.84,3.59,55.51,55.51,0,0,1,54.45,0a69.26,69.26,0,0,1,24.2,4.1A54.5,54.5,0,0,1,97.52,15.59Z"/><path class="cls-1" d="M199,115a5.17,5.17,0,0,1,3.9,1.74l10.87,11.79a59.85,59.85,0,0,1-22.2,17.13q-13.19,5.94-31.64,5.94a74.55,74.55,0,0,1-29.68-5.64,65.21,65.21,0,0,1-22.51-15.68,68.78,68.78,0,0,1-14.31-24,90.23,90.23,0,0,1-5-30.46A81.85,81.85,0,0,1,94,45.17a70.11,70.11,0,0,1,15.58-23.94,70.64,70.64,0,0,1,24-15.64A82.6,82.6,0,0,1,164.55,0q16.5,0,28.87,5.28a67.54,67.54,0,0,1,21.17,14L205.36,32.1a8.4,8.4,0,0,1-2.1,2.15,5.93,5.93,0,0,1-3.54.92,8.06,8.06,0,0,1-4.82-1.84,58.58,58.58,0,0,0-6.25-4,50.78,50.78,0,0,0-9.59-4,49.35,49.35,0,0,0-14.72-1.85,49.74,49.74,0,0,0-19.22,3.64A42.83,42.83,0,0,0,130,37.53,48,48,0,0,0,120.2,54a63.2,63.2,0,0,0-3.54,21.79A64.89,64.89,0,0,0,120.2,98a48.77,48.77,0,0,0,9.59,16.41A40.84,40.84,0,0,0,144,124.65a44.21,44.21,0,0,0,17.64,3.53,76.84,76.84,0,0,0,10.2-.61,43.2,43.2,0,0,0,8.41-1.95,37,37,0,0,0,7.28-3.44,45.59,45.59,0,0,0,6.82-5.17,9.66,9.66,0,0,1,2.15-1.49A5.39,5.39,0,0,1,199,115Z"/><path d="M270.72,65.45a45.08,45.08,0,0,0,5.43-.3,28.39,28.39,0,0,0,8.55-2.41c1.26-.59,2.54-1.25,3.82-2V45.21H277.41a1.05,1.05,0,0,1-.75-.29.86.86,0,0,1-.31-.65V42h16V62.51a37.36,37.36,0,0,1-4.49,2.7,29.7,29.7,0,0,1-5,2,37.8,37.8,0,0,1-5.71,1.22,47.87,47.87,0,0,1-6.7.43A30.06,30.06,0,0,1,259,66.74a25.28,25.28,0,0,1-8.85-6,26.74,26.74,0,0,1-5.74-9.33,34.59,34.59,0,0,1-2-12.16,34.45,34.45,0,0,1,2-12.15,26.34,26.34,0,0,1,5.8-9.3,25.35,25.35,0,0,1,9.12-6,32.74,32.74,0,0,1,12-2.11,38.38,38.38,0,0,1,6.1.45,28.76,28.76,0,0,1,5.21,1.33,24.81,24.81,0,0,1,4.49,2.16,31,31,0,0,1,4,3l-1.1,1.8a1.14,1.14,0,0,1-1,.61,1.53,1.53,0,0,1-.7-.16,8.74,8.74,0,0,1-1.77-1.15,19.8,19.8,0,0,0-3.15-1.87,25.82,25.82,0,0,0-5-1.76,29.34,29.34,0,0,0-7.22-.77,27.58,27.58,0,0,0-10.17,1.79,21.54,21.54,0,0,0-7.73,5.15,22.77,22.77,0,0,0-4.94,8.16,31.69,31.69,0,0,0-1.74,10.82,32.18,32.18,0,0,0,1.76,11,23.4,23.4,0,0,0,4.92,8.22,21.22,21.22,0,0,0,7.59,5.17A25.92,25.92,0,0,0,270.72,65.45Z"/><path d="M310.07,8.79v59.4h-3.88V8.79Z"/><path d="M339.91,26.92a19.56,19.56,0,0,1,7.81,1.49,15.94,15.94,0,0,1,5.82,4.22,18.71,18.71,0,0,1,3.61,6.6,28,28,0,0,1,1.25,8.63,27.83,27.83,0,0,1-1.25,8.61A18.65,18.65,0,0,1,353.54,63a15.69,15.69,0,0,1-5.82,4.21,21.51,21.51,0,0,1-15.63,0A15.85,15.85,0,0,1,326.25,63a18.53,18.53,0,0,1-3.63-6.57,27.83,27.83,0,0,1-1.25-8.61,28,28,0,0,1,1.25-8.63,18.59,18.59,0,0,1,3.63-6.6,16.1,16.1,0,0,1,5.84-4.22A19.58,19.58,0,0,1,339.91,26.92Zm0,38.74a15.07,15.07,0,0,0,6.34-1.25,12.12,12.12,0,0,0,4.54-3.57,15.77,15.77,0,0,0,2.71-5.61,27.92,27.92,0,0,0,.9-7.37,28,28,0,0,0-.9-7.35,16,16,0,0,0-2.71-5.65,12.12,12.12,0,0,0-4.54-3.61,16.49,16.49,0,0,0-12.69,0A12,12,0,0,0,329,34.86a16.35,16.35,0,0,0-2.74,5.65,27.53,27.53,0,0,0-.92,7.35,27.48,27.48,0,0,0,.92,7.37A16.15,16.15,0,0,0,329,60.84a12,12,0,0,0,4.53,3.57A15.08,15.08,0,0,0,339.91,65.66Z"/><path d="M369,68.19V8.79h3.88l0,25.88A21.42,21.42,0,0,1,379.17,29a15.53,15.53,0,0,1,8-2.08q7.47,0,11.65,5.16T403,47.61a28.49,28.49,0,0,1-1.16,8.31,19.78,19.78,0,0,1-3.44,6.7,16.32,16.32,0,0,1-5.55,4.47,17,17,0,0,1-7.59,1.63,14.17,14.17,0,0,1-12.59-6.53l-.24,5a1,1,0,0,1-1.09,1Zm17-38.17a13.41,13.41,0,0,0-7.32,2.08,20.75,20.75,0,0,0-5.84,5.8V59.33A13.79,13.79,0,0,0,378,64.25a15.74,15.74,0,0,0,12.8.1,12.33,12.33,0,0,0,4.51-3.69,16.53,16.53,0,0,0,2.74-5.72,27.19,27.19,0,0,0,.92-7.33q0-9.06-3.35-13.32T386.05,30Z"/><path d="M439.1,68.19A1.39,1.39,0,0,1,437.59,67L437,61.86a43.36,43.36,0,0,1-3.33,2.94,19.31,19.31,0,0,1-3.45,2.2,16.82,16.82,0,0,1-3.88,1.37,21,21,0,0,1-4.57.47,13.36,13.36,0,0,1-4-.61,9.9,9.9,0,0,1-3.47-1.88,9.1,9.1,0,0,1-2.43-3.24,11.29,11.29,0,0,1-.92-4.76,8.46,8.46,0,0,1,1.47-4.78A12.07,12.07,0,0,1,417,49.74a30.56,30.56,0,0,1,8-2.62A70.44,70.44,0,0,1,436.85,46V41.74q0-5.64-2.43-8.68c-1.62-2-4-3-7.2-3a13.46,13.46,0,0,0-5,.82,17.42,17.42,0,0,0-3.49,1.79,24.11,24.11,0,0,0-2.33,1.8,2.55,2.55,0,0,1-1.51.82,1.32,1.32,0,0,1-1.22-.74l-.7-1.18a23.83,23.83,0,0,1,6.7-4.82,18.63,18.63,0,0,1,8-1.63,14.4,14.4,0,0,1,5.71,1,10.52,10.52,0,0,1,4.06,3,12.9,12.9,0,0,1,2.43,4.69,21.44,21.44,0,0,1,.82,6.15V68.19ZM422.77,66a17.42,17.42,0,0,0,4.35-.51,15.74,15.74,0,0,0,3.67-1.43A17.43,17.43,0,0,0,434,61.9c1-.84,1.95-1.75,2.9-2.73V48.59a73.57,73.57,0,0,0-10,.88,28.78,28.78,0,0,0-6.9,1.94,10.16,10.16,0,0,0-4,2.92,6.27,6.27,0,0,0-1.28,3.86,8.52,8.52,0,0,0,.67,3.53,7,7,0,0,0,1.78,2.45,6.77,6.77,0,0,0,2.57,1.4A10.08,10.08,0,0,0,422.77,66Z"/><path d="M457.92,8.79v59.4H454V8.79Z"/><path d="M273.86,90.22a1.15,1.15,0,0,1-1.06.69,2.35,2.35,0,0,1-1.37-.75,16.91,16.91,0,0,0-2.28-1.68,17.65,17.65,0,0,0-3.58-1.69,18,18,0,0,0-10.85.12,11.4,11.4,0,0,0-4,2.45A10.37,10.37,0,0,0,248.25,93a11.16,11.16,0,0,0-.84,4.29,8.69,8.69,0,0,0,1.25,4.86,11.24,11.24,0,0,0,3.29,3.26,21.54,21.54,0,0,0,4.64,2.27c1.73.61,3.5,1.21,5.33,1.81s3.6,1.26,5.34,2a19.07,19.07,0,0,1,4.63,2.72,12.54,12.54,0,0,1,3.3,4,12.75,12.75,0,0,1,1.24,5.94,18.65,18.65,0,0,1-1.24,6.83,16.08,16.08,0,0,1-3.61,5.58,17,17,0,0,1-5.8,3.73,21.09,21.09,0,0,1-7.84,1.37,22.12,22.12,0,0,1-9.84-2,23.21,23.21,0,0,1-7.22-5.53l1.14-1.8a1.44,1.44,0,0,1,1.14-.61,1.6,1.6,0,0,1,.94.49c.39.32.85.73,1.39,1.2s1.2,1,2,1.55a16.11,16.11,0,0,0,2.65,1.56,19.62,19.62,0,0,0,3.48,1.2,18.26,18.26,0,0,0,4.45.49,17.07,17.07,0,0,0,6.14-1,13.53,13.53,0,0,0,4.55-2.84,12,12,0,0,0,2.84-4.26,14.09,14.09,0,0,0,1-5.29,9.32,9.32,0,0,0-1.24-5,10.82,10.82,0,0,0-3.29-3.31,21.68,21.68,0,0,0-4.64-2.22q-2.6-.9-5.34-1.76t-5.33-1.92a18.19,18.19,0,0,1-4.64-2.71,12.48,12.48,0,0,1-3.29-4.12,13.7,13.7,0,0,1-1.25-6.19,14.7,14.7,0,0,1,1.1-5.59,14.11,14.11,0,0,1,3.23-4.76,15.93,15.93,0,0,1,5.26-3.3,19.13,19.13,0,0,1,7.13-1.25A21.62,21.62,0,0,1,268.32,84a19.24,19.24,0,0,1,6.52,4.37Z"/><path d="M289.45,100.34v26q0,5.72,2.63,9c1.74,2.17,4.41,3.25,8,3.25a14.49,14.49,0,0,0,7.42-2,21.59,21.59,0,0,0,6.18-5.62V100.34h3.88V141H315.4a1,1,0,0,1-1.17-1.07l-.37-6a23.1,23.1,0,0,1-6.52,5.64,16.27,16.27,0,0,1-8.23,2.12,15.21,15.21,0,0,1-5.93-1.06,11,11,0,0,1-4.21-3.06,13.69,13.69,0,0,1-2.54-4.82,21.93,21.93,0,0,1-.85-6.37v-26Z"/><path d="M330.76,141V100.34h2.12a1.11,1.11,0,0,1,1.23,1l.37,5.88a24.8,24.8,0,0,1,2.53-3.06,16.92,16.92,0,0,1,2.88-2.39,13.18,13.18,0,0,1,3.26-1.55,12,12,0,0,1,3.65-.55,9.73,9.73,0,0,1,7.11,2.59,13.58,13.58,0,0,1,3.59,7.2,14,14,0,0,1,2.06-4.36,12.91,12.91,0,0,1,3-3.05,12.59,12.59,0,0,1,3.73-1.79,14.49,14.49,0,0,1,4.14-.59,13.93,13.93,0,0,1,5.42,1,10.78,10.78,0,0,1,4.1,3,13.35,13.35,0,0,1,2.58,4.81,21.79,21.79,0,0,1,.9,6.53v26h-3.88V115c0-4-.85-7-2.57-9.08a9,9,0,0,0-7.35-3.12,11,11,0,0,0-4.06.77,10,10,0,0,0-3.43,2.31,11,11,0,0,0-2.36,3.82,14.61,14.61,0,0,0-.88,5.3v26h-3.88V115q0-5.91-2.37-9.06a8.12,8.12,0,0,0-6.9-3.14,10.44,10.44,0,0,0-6.12,2,18.76,18.76,0,0,0-5,5.49V141Z"/><path d="M395.71,141V100.34h2.12a1.1,1.1,0,0,1,1.22,1l.37,5.88a24.8,24.8,0,0,1,2.53-3.06,16.92,16.92,0,0,1,2.88-2.39,13.25,13.25,0,0,1,3.27-1.55,11.86,11.86,0,0,1,3.65-.55,9.72,9.72,0,0,1,7.1,2.59,13.51,13.51,0,0,1,3.59,7.2,14.2,14.2,0,0,1,2.06-4.36,13,13,0,0,1,3-3.05,12.48,12.48,0,0,1,3.73-1.79,14.37,14.37,0,0,1,4.13-.59,13.93,13.93,0,0,1,5.42,1,10.7,10.7,0,0,1,4.1,3,13.37,13.37,0,0,1,2.59,4.81,21.79,21.79,0,0,1,.9,6.53v26h-3.88V115q0-6-2.57-9.08a9,9,0,0,0-7.35-3.12,10.93,10.93,0,0,0-4.06.77,9.81,9.81,0,0,0-3.43,2.31,10.87,10.87,0,0,0-2.37,3.82,14.61,14.61,0,0,0-.88,5.3v26H420V115q0-5.91-2.36-9.06a8.12,8.12,0,0,0-6.9-3.14,10.39,10.39,0,0,0-6.12,2,18.79,18.79,0,0,0-5,5.49V141Z"/><path d="M467.39,86.34a3.2,3.2,0,0,1-.31,1.37,4,4,0,0,1-.8,1.12,3.64,3.64,0,0,1-1.14.77,3.43,3.43,0,0,1-1.39.29,3.38,3.38,0,0,1-1.38-.29,3.8,3.8,0,0,1-1.15-.77,3.92,3.92,0,0,1-.77-1.12,3.33,3.33,0,0,1-.29-1.37,3.72,3.72,0,0,1,1.06-2.57,3.66,3.66,0,0,1,1.15-.78,3.37,3.37,0,0,1,1.38-.28,3.42,3.42,0,0,1,1.39.28,3.5,3.5,0,0,1,1.14.78,3.69,3.69,0,0,1,.8,1.16A3.45,3.45,0,0,1,467.39,86.34Zm-1.72,14V141h-3.88V100.34Z"/><path d="M491.1,141.61a8.65,8.65,0,0,1-6.41-2.29q-2.28-2.28-2.28-7.06V104.5h-5.84a1.12,1.12,0,0,1-.74-.24.87.87,0,0,1-.28-.7v-1.51l6.94-.49,1-14.53a1.12,1.12,0,0,1,.3-.65.93.93,0,0,1,.71-.29h1.81v15.52h12.78v2.89H486.28v27.56a8.72,8.72,0,0,0,.43,2.87,5.24,5.24,0,0,0,1.19,2,4.64,4.64,0,0,0,1.77,1.15,6.61,6.61,0,0,0,2.21.36,6.87,6.87,0,0,0,2.53-.42,10.38,10.38,0,0,0,1.83-.94,12.75,12.75,0,0,0,1.27-.94,1.36,1.36,0,0,1,.78-.43.91.91,0,0,1,.65.41l1.06,1.71a11.3,11.3,0,0,1-3.94,2.76A12.33,12.33,0,0,1,491.1,141.61Z"/></svg>